{"title":"Portrait of a Zombie 2012 BRRip 720p x264 AAC - PRiSTiNE [P2PDL]","uid":8685731,"size":585270164,"categoryP":"video","categoryS":"hd___movies","magnet":"?xt=urn:btih:68abc24bcdf8a73a69e539c30dfabeadd09d5b69&amp;dn=Portrait+of+a+Zombie+2012+BRRip+720p+x264+AAC+-+PRiSTiNE+%5BP2PDL%5D&amp;tr=udp%3A%2F%2Ftracker.openbittorrent.com%3A80&amp;tr=udp%3A%2F%2Fopen.demonii.com%3A1337&amp;tr=udp%3A%2F%2Ftracker.coppersurfer.tk%3A6969&amp;tr=udp%3A%2F%2Fexodus.desync.com%3A6969","seeders":0,"leechers":1,"uploader":"ValidusVyto","files":8,"time":1373799708,"description":"_______ Visit us at our Semi Public Bittorrent Community ________\n  &lt;a href=&quot;\nhttp://p2pdl.com&quot; rel=&quot;nofollow&quot; target=&quot;_NEW&quot;&gt;\nhttp://p2pdl.com&lt;/a&gt;  _____________________________ &lt;a href=&quot; http://p2pdl.com&quot; rel=&quot;nofollow&quot; target=&quot;_NEW&quot;&gt; http://p2pdl.com&lt;/a&gt;\n\n\nPortrait of a Zombie 2012 BRRip 720p x264 AAC - PRiSTiNE\n\n\nGenre: Comedy | Drama | Horror  \nPlot: When son, Billy, becomes a zombie the family chooses to take care of him in\nthe home much to the chagrin of the neighbors and the local crime boss.\nDirector: Bing Bailey\nStars: Patrick Murphy, Geraldine McAlinden, Rory Mullen.\nRated: N/a\n\n\nInfo: &lt;a href=&quot;\nhttp://www.imdb.com/title/tt1566938/&quot; rel=&quot;nofollow&quot; target=&quot;_NEW&quot;&gt;\nhttp://www.imdb.com/title/tt1566938/&lt;/a&gt;\n\nTrailer:\n\n\nFormat                         : MPEG-4\nFile size                      : 551 MiB\nDuration                       : 1h 26mn\nOverall bit rate               : 895 Kbps\nSource                         : 720p.BluRay.x264-ENCOUNTERS\n\nVideo\nFormat                         : AVC\nDuration                       : 1h 26mn\nBit rate                       : 812 Kbps\nWidth                          : 1 280 pixels\nHeight                         : 640 pixels\nDisplay aspect ratio           : 2.000\nFrame rate mode                : Constant\nFrame rate                     : 23.976 fps\nStream size                    : 500 MiB (91%)\nWriting library                : x264 core 130 r2273\n\nAudio\nFormat                         : AAC\nBit rate mode                  : Variable\nBit rate                       : 80.0 Kbps\nChannel(s)                     : 2 channels\nChannel positions              : Front: L R\nSampling rate                  : 48.0 KHz\nStream size                    : 49.3 MiB (9%)\nLanguage                       : English\n\nSubtitle                       : N/a\n &lt;a href=&quot;\nhttp://someimage.com/M4OJ5nY&quot; rel=&quot;nofollow&quot; target=&quot;_NEW&quot;&gt;\nhttp://someimage.com/M4OJ5nY&lt;/a&gt; &lt;a href=&quot;\nhttp://someimage.com/TLTrr4j&quot; rel=&quot;nofollow&quot; target=&quot;_NEW&quot;&gt;\nhttp://someimage.com/TLTrr4j&lt;/a&gt; &lt;a href=&quot;\nhttp://someimage.com/paAQmwd&quot; rel=&quot;nofollow&quot; target=&quot;_NEW&quot;&gt;\nhttp://someimage.com/paAQmwd&lt;/a&gt; &lt;a href=&quot;\nhttp://someimage.com/Ts7E6ZG&quot; rel=&quot;nofollow&quot; target=&quot;_NEW&quot;&gt;\nhttp://someimage.com/Ts7E6ZG&lt;/a&gt; &lt;a href=&quot;\nhttp://someimage.com/PDAsyf2&quot; rel=&quot;nofollow&quot; target=&quot;_NEW&quot;&gt;\nhttp://someimage.com/PDAsyf2&lt;/a&gt;\n\n\n----------------------------------------------------------------------------------------------------\n\n\nEncoded using revolutionary 10bit encoding, which enables us to provide you more crispier \nand sharper images at small sizes, just make sure you follow our instructions without a fault.\nRecommend to you to use latest version of VLC player. Install K-Lite Codec Pack or shark007 codecs\nin case of any kind of problem in playback (For non-VLC Media Player users). Alternatively, install\nCore AVC codecs, the fastest decoder that there is coupled with Community Center Codec Pack and play\non Windows Media Player Classic. Check sample to be sure.\nEnjoy!\n\nEncoder Notes:Looking For Early Access To Anything You Can Provide DVDScr, R5, DVDR, BluRay, Direct\nAudio, Music Releases and Seedboxes. We require dedicated servers, so as to do more \nand fast releases of movies.\nIf You Got anything to offer please contact us at &quot;&lt;a class=&quot;__cf_email__&quot; href=&quot;/cdn-cgi/l/email-protection&quot; data-cfemail=&quot;5e2e2c391e362b2d36703d3133&quot;&gt;[email&amp;#160;protected]&lt;/a&gt;&lt;script cf-hash='f9e31' type=&quot;text/javascript&quot;&gt;\n/* &lt;![CDATA[ */!function(){try{var t=&quot;currentScript&quot;in document?document.currentScript:function(){for(var t=document.getElementsByTagName(&quot;script&quot;),e=t.length;e--;)if(t[e].getAttribute(&quot;cf-hash&quot;))return t[e]}();if(t&amp;&amp;t.previousSibling){var e,r,n,i,c=t.previousSibling,a=c.getAttribute(&quot;data-cfemail&quot;);if(a){for(e=&quot;&quot;,r=parseInt(a.substr(0,2),16),n=2;a.length-n;n+=2)i=parseInt(a.substr(n,2),16)^r,e+=String.fromCharCode(i);e=document.createTextNode(e),c.parentNode.replaceChild(e,c)}}}catch(u){}}();/* ]]&gt; */&lt;/script&gt;&quot;.\n\nFace book Fan Page:  \n","torrent":{"xt":"urn:btih:68abc24bcdf8a73a69e539c30dfabeadd09d5b69","amp;dn":"Portrait+of+a+Zombie+2012+BRRip+720p+x264+AAC+-+PRiSTiNE+%5BP2PDL%5D","amp;tr":["udp%3A%2F%2Ftracker.openbittorrent.com%3A80","udp%3A%2F%2Fopen.demonii.com%3A1337","udp%3A%2F%2Ftracker.coppersurfer.tk%3A6969","udp%3A%2F%2Fexodus.desync.com%3A6969"],"infoHash":"68abc24bcdf8a73a69e539c30dfabeadd09d5b69","infoHashBuffer":{"type":"Buffer","data":[104,171,194,75,205,248,167,58,105,229,57,195,13,250,190,173,208,157,91,105]},"announce":[],"urlList":[]}}